pedal_clip_forces.mot
version=1
nRows=181
nColumns=4
inDegrees=yes
endheader
time	PedalClip_calcn_r_Fx	PedalClip_calcn_r_Fy	PedalClip_calcn_r_Fz
0.52377965	-59.1879951002239	-132.714273819253	-0
0.52422948	-59.238649697203	-132.54529060955	-0
0.52467931	-59.2886642079438	-132.376292231791	-0
0.52511384	-59.3381351791172	-132.207189900784	-0
0.52558522	-59.3870783081398	-132.037975771054	-0
0.5260566	-59.4353731711805	-131.868735226959	-0
0.52652798	-59.482965577676	-131.699514080512	-0
0.52699936	-59.5297865309094	-131.530441778	-0
0.52747073	-59.5757165227407	-131.361781829808	-0
0.52794211	-59.6206998224349	-131.194038633423	-0
0.52841349	-59.6647596654736	-131.027501733629	-0
0.52888487	-59.7078657377735	-130.862343290166	-0
0.52935625	-59.7500584729636	-130.698883172635	-0
0.52977148	-59.7914695565536	-130.537118565644	-0
0.53033394	-59.8322235533512	-130.376536563948	-0
0.5307464	-59.8722994980589	-130.216579932328	-0
0.53128191	-59.9116878494605	-130.057010068903	-0
0.53181741	-59.9504092672908	-129.897347103247	-0
0.53221116	-59.9883705422307	-129.737236954288	-0
0.5326309	-60.0255365222619	-129.576563841894	-0
0.53305064	-60.0619614023939	-129.414883920808	-0
0.53331018	-60.097662018759	-129.251644329758	-0
0.53373778	-60.1324964889762	-129.086768753341	-0
0.5341955	-60.1663668328308	-128.920425827959	-0
0.53465323	-60.1992695613704	-128.752477684352	-0
0.53492798	-60.2312115039901	-128.582769267322	-0
0.53566315	-60.2621675831438	-128.411399508107	-0
0.53617318	-60.2920585799194	-128.238767645115	-0
0.53685536	-60.320690698941	-128.065742659232	-0
0.53753754	-60.3478645595306	-127.893354115199	-0
0.5379979	-60.3734703664642	-127.722051223696	-0
0.53845826	-60.3973924853359	-127.552062785643	-0
0.5386154	-60.4196242544552	-127.383712939846	-0
0.53900017	-60.4402767779541	-127.217067440634	-0
0.5394537	-60.4595110698677	-127.051903267128	-0
0.53990723	-60.4774201346748	-126.887879368796	-0
0.54005585	-60.494094686525	-126.725009251523	-0
0.54044161	-60.5096821989353	-126.5629010276	-0
0.5409154	-60.524219046052	-126.401290983669	-0
0.54138918	-60.5377325551931	-126.240485695438	-0
0.54175751	-60.5502561512183	-126.080533161673	-0
0.54222688	-60.5617189721166	-125.921556901582	-0
0.54269625	-60.5721716092789	-125.763854004285	-0
0.54292235	-60.5817235894471	-125.607139432744	-0
0.54339018	-60.5903880208036	-125.451343725496	-0
0.54386005	-60.5984037259078	-125.296249244955	-0
0.54432992	-60.6060062827402	-125.140933303812	-0
0.5446384	-60.6132112008972	-124.984771781339	-0
0.54537611	-60.6201487650102	-124.827075171043	-0
0.54560156	-60.626983351674	-124.666633853935	-0
0.54618167	-60.6336789850428	-124.502561005055	-0
0.54658668	-60.6401815716324	-124.334975402547	-0
0.54699168	-60.6464622912138	-124.164467406492	-0
0.54740856	-60.6524430332169	-123.991819509414	-0
0.54790423	-60.6579326556789	-123.817829890853	-0
0.5483999	-60.6627270459406	-123.643485825446	-0
0.54856462	-60.666667710684	-123.469083423401	-0
0.54902002	-60.6695899542982	-123.294555867242	-0
0.54948371	-60.6713803713742	-123.119878910815	-0
0.54994739	-60.6719289364205	-122.944946599447	-0
0.55029477	-60.6710747963274	-122.76939070276	-0
0.55087571	-60.6686699773277	-122.59290242855	-0
0.55145665	-60.6645971930425	-122.415222479792	-0
0.5518429	-60.658756804344	-122.236262499074	-0
0.55230416	-60.6511223424903	-122.055902075909	-0
0.55276542	-60.641635738698	-121.874120289221	-0
0.55314189	-60.6303182084888	-121.690837910442	-0
0.55365894	-60.6173242055719	-121.505322708654	-0
0.55417599	-60.6026588063973	-121.316982616806	-0
0.55447568	-60.5862696956541	-121.126052768079	-0
0.55519763	-60.5682413570651	-120.932404966756	-0
0.55591957	-60.5487289833274	-120.735593843056	-0
0.55634897	-60.5279206876403	-120.535064837111	-0
0.55677837	-60.5059089130547	-120.33092813612	-0
0.55727824	-60.4825792177211	-120.12417904371	-0
0.55777019	-60.4578087615785	-119.915772147379	-0
0.55844162	-60.4315710793056	-119.706019568718	-0
0.5590048	-60.4039127121917	-119.494976100402	-0
0.55956797	-60.3750006954544	-119.282292833971	-0
0.55989217	-60.3449886809519	-119.067777447983	-0
0.56046601	-60.3140011542631	-118.85170283207	-0
0.56103986	-60.2820785546559	-118.634339005016	-0
0.56143356	-60.2491800704668	-118.415968569847	-0
0.5619299	-60.2151799902138	-118.197243011041	-0
0.56242624	-60.180185853147	-117.978864877829	-0
0.56276597	-60.1442265015189	-117.760951605173	-0
0.56354876	-60.1071409649896	-117.544125744227	-0
0.56410092	-60.0689423307726	-117.329357568349	-0
0.56465307	-60.0295567862367	-117.116739741753	-0
0.56509224	-59.9887495855839	-116.906408024501	-0
0.5655828	-59.9464943423973	-116.698591991495	-0
0.5660301	-59.9027586586674	-116.492406244816	-0
0.5664774	-59.8573807099375	-116.287163671013	-0
0.56688414	-59.8103925270179	-116.082474595086	-0
0.56750211	-59.761797267505	-115.877567247866	-0
0.56812008	-59.7115005733793	-115.672173305748	-0
0.56850234	-59.6595773531372	-115.466398968542	-0
0.5690207	-59.6060353423203	-115.26013654838	-0
0.56953905	-59.5508286641107	-115.05300738011	-0
0.56993404	-59.4940646308943	-114.844785875841	-0
0.57051382	-59.4357431443482	-114.635273538599	-0
0.57109359	-59.3756985431265	-114.424581738524	-0
0.57146603	-59.313880027723	-114.213031009419	-0
0.57202928	-59.2503706043694	-114.000362986002	-0
0.57259253	-59.18504855161	-113.786410502501	-0
0.57298524	-59.1178308622281	-113.571466252121	-0
0.57355905	-59.0487410906885	-113.35518025048	-0
0.57413287	-58.9776986416456	-113.137176714541	-0
0.57451433	-58.9047029411921	-112.917779357216	-0
0.57510007	-58.8298895162871	-112.696847830235	-0
0.57568581	-58.7532319711241	-112.474320284922	-0
0.57608024	-58.6747102364726	-112.250708278278	-0
0.5766655	-58.5943334710057	-112.025942734999	-0
0.57725076	-58.512023435008	-111.799708608878	-0
0.57764148	-58.4277760661653	-111.571832022817	-0
0.57824185	-58.3414872273812	-111.342364865198	-0
0.57884223	-58.252978779898	-111.111510179729	-0
0.57924028	-58.1622730892222	-110.879290777158	-0
0.57984501	-58.0694000213598	-110.645211260223	-0
0.58044973	-57.9742279567419	-110.409133553326	-0
0.58084848	-57.8766262003276	-110.170882318113	-0
0.58146525	-57.7765243472359	-109.930366926138	-0
0.58208203	-57.6739505683044	-109.687724653335	-0
0.58248547	-57.5689218276081	-109.442821636681	-0
0.58311305	-57.4613504661511	-109.195405185605	-0
0.58374064	-57.3511339162616	-108.945296077244	-0
0.58414695	-57.2383562892286	-108.692297260285	-0
0.58478602	-57.1229045025244	-108.43644700012	-0
0.5854251	-57.0044987449886	-108.178440025157	-0
0.58583531	-56.8828894710516	-107.919057779893	-0
0.58648953	-56.7578881808018	-107.65850932249	-0
0.58714374	-56.6294109063887	-107.396895112141	-0
0.58755779	-56.4973871961947	-107.134081695932	-0
0.58822822	-56.3617450126144	-106.870015652691	-0
0.58889864	-56.2225209555119	-106.60454228957	-0
0.58931678	-56.0799241575768	-106.337254468167	-0
0.59000911	-55.9339904871878	-106.067978807245	-0
0.59070144	-55.7847848632815	-105.796654965105	-0
0.59112399	-55.6325230264538	-105.522861871331	-0
0.59185088	-55.4772345977659	-105.246315513838	-0
0.59257776	-55.3188273332478	-104.967353075664	-0
0.59300626	-55.1573869571182	-104.685729593319	-0
0.59384654	-54.9931009907884	-104.401000371776	-0
0.59468681	-54.8260491158187	-104.113463950309	-0
0.5956993	-54.6563220264297	-103.823761781376	-0
0.59621097	-54.4840112163938	-103.532059142251	-0
0.59671072	-54.3095085917028	-103.238704856976	-0
0.59721048	-54.1333487664022	-102.943555149191	-0
0.59825183	-53.9556102477554	-102.646394966954	-0
0.59835596	-53.7760226612436	-102.347554608635	-0
0.59854309	-53.5941353302067	-102.046675797616	-0
0.59929783	-53.4091029687252	-101.74335429027	-0
0.60005258	-53.2202395640585	-101.437025628312	-0
0.60051713	-53.0269752112177	-101.126795459601	-0
0.60136064	-52.829090058434	-100.81213755387	-0
0.60190066	-52.6264601580659	-100.492656791161	-0
0.60244068	-52.4189812800725	-100.167850629606	-0
0.60288005	-52.2067409401278	-99.8376995723477	-0
0.6039652	-51.9899234664101	-99.5026558822028	-0
0.60439633	-51.7686083331526	-99.1629630306073	-0
0.60497491	-51.5427405774657	-98.8183915234789	-0
0.60576709	-51.3119914577612	-98.4684265788688	-0
0.60631227	-51.0757377802979	-98.1123834580272	-0
0.60685744	-50.8331246964402	-97.7496142015199	-0
0.60733428	-50.5831325868551	-97.380137177424	-0
0.60849878	-50.3248210533541	-97.0042814963273	-0
0.60904082	-50.058187420643	-96.6223244633172	-0
0.60958287	-49.7840018701469	-96.2348119172301	-0
0.6102262	-49.502971101648	-95.8421924351656	-0
0.61167531	-49.2158334417182	-95.4450752022951	-0
0.6120661	-48.9229128756494	-95.0438180947277	-0
0.6133074	-48.624348545845	-94.6384282676912	-0
0.61377018	-48.3204824261233	-94.2288375743863	-0
0.61443616	-48.0116420034663	-93.8155419552018	-0
0.61514967	-47.6979579132718	-93.3993429326549	-0
0.61613099	-47.3795170450951	-92.9809342430205	-0
0.61672822	-47.0565138164632	-92.561012094863	-0
0.61744826	-46.7293341857086	-92.1403738598077	-0
0.61797777	-46.3981432873047	-91.7190512901678	-0
0.61903394	-46.0628466999199	-91.2968980854225	-0
0.62009011	-45.7235346513427	-90.8736418186257	-0
